<svg width="15" height="27" viewBox="0 0 15 27" fill="none" xmlns="http://www.w3.org/2000/svg">
<path d="M14.81 18.27C14.81 19.23 14.57 20.15 14.09 21.03C13.61 21.89 12.9 22.61 11.96 23.19C11.04 23.77 9.93 24.1 8.63 24.18V26.61H7.01V24.18C5.19 24.02 3.71 23.44 2.57 22.44C1.43 21.42 0.85 20.13 0.83 18.57H3.74C3.82 19.41 4.13 20.14 4.67 20.76C5.23 21.38 6.01 21.77 7.01 21.93V14.43C5.67 14.09 4.59 13.74 3.77 13.38C2.95 13.02 2.25 12.46 1.67 11.7C1.09 10.94 0.8 9.92 0.8 8.64C0.8 7.02 1.36 5.68 2.48 4.62C3.62 3.56 5.13 2.97 7.01 2.85V0.359999H8.63V2.85C10.33 2.99 11.7 3.54 12.74 4.5C13.78 5.44 14.38 6.67 14.54 8.19H11.63C11.53 7.49 11.22 6.86 10.7 6.3C10.18 5.72 9.49 5.34 8.63 5.16V12.48C9.95 12.82 11.02 13.17 11.84 13.53C12.68 13.87 13.38 14.42 13.94 15.18C14.52 15.94 14.81 16.97 14.81 18.27ZM3.59 8.49C3.59 9.47 3.88 10.22 4.46 10.74C5.04 11.26 5.89 11.69 7.01 12.03V5.1C5.97 5.2 5.14 5.54 4.52 6.12C3.9 6.68 3.59 7.47 3.59 8.49ZM8.63 21.96C9.71 21.84 10.55 21.45 11.15 20.79C11.77 20.13 12.08 19.34 12.08 18.42C12.08 17.44 11.78 16.69 11.18 16.17C10.58 15.63 9.73 15.2 8.63 14.88V21.96Z" fill="black"/>
</svg>
