<svg width="55" height="55" viewBox="0 0 55 55" fill="none" xmlns="http://www.w3.org/2000/svg">
<path d="M36.3482 9.56079H9.02226C4.04744 9.56079 0 13.6082 0 18.5833V45.9091C0 50.8841 4.04744 54.9315 9.02226 54.9315H36.3482C41.323 54.9315 45.3705 50.8841 45.3705 45.9091V18.5833C45.3705 13.6082 41.323 9.56079 36.3482 9.56079ZM21.506 36.3229C21.506 38.3393 20.9178 39.8251 19.7417 40.7803C18.5652 41.7355 17.0308 42.2131 15.1383 42.2131C13.1393 42.2131 11.6228 41.7182 10.5881 40.7273C9.55335 39.7369 9.03601 38.6226 9.03601 37.3842C9.03601 36.8715 9.15954 36.5178 9.40758 36.323C9.65508 36.1286 10.0796 36.0312 10.6811 36.0312C11.371 36.0312 11.8394 36.124 12.0873 36.3097C12.3349 36.4954 12.4588 36.8096 12.4588 37.2516C12.4588 37.853 12.7063 38.3261 13.2016 38.671C13.6966 39.016 14.3691 39.1884 15.2181 39.1884C16.2086 39.1884 16.9294 38.9628 17.3804 38.5117C17.8315 38.0607 18.0571 37.3311 18.0571 36.3229V35.8188C18.0571 34.1386 17.0842 33.2982 15.1385 33.2982C14.4661 33.2982 14.1302 32.8472 14.1302 31.9452C14.1302 31.043 14.4723 30.5921 15.157 30.5921C15.9289 30.5921 16.5259 30.4209 16.9471 30.0776C17.3683 29.7343 17.5794 29.0441 17.5794 28.006C17.5794 26.458 16.8008 25.6836 15.2446 25.6836C13.6701 25.6836 12.8831 26.2731 12.8831 27.4517C12.8831 28.3314 12.3347 28.7713 11.2382 28.7713C10.4952 28.7713 10.0131 28.6702 9.79215 28.4678C9.57075 28.2655 9.46043 27.8742 9.46043 27.2934C9.46043 26.7785 9.55743 26.2682 9.7523 25.7619C9.94673 25.2562 10.2518 24.7632 10.6676 24.2836C11.0829 23.8044 11.6891 23.4135 12.4851 23.1116C13.2811 22.8098 14.2097 22.6589 15.271 22.6589C19.0207 22.6589 20.8957 24.2479 20.8957 27.4251C20.8957 28.4822 20.7125 29.4029 20.3465 30.1869C19.9804 30.9713 19.4672 31.5131 18.8067 31.8124C20.6059 32.52 21.5059 33.8554 21.5059 35.8187V36.3229H21.506ZM36.3639 35.978C36.3639 38.0831 35.7976 39.6221 34.6659 40.5947C33.5338 41.5677 32.0214 42.0539 30.129 42.0539H25.4328C24.9904 42.0539 24.6278 41.9477 24.3449 41.7355C24.0617 41.5232 23.9204 41.2757 23.9204 40.9925V23.7201C23.9204 23.4373 24.0617 23.1894 24.3449 22.9772C24.6276 22.765 24.9904 22.6589 25.4328 22.6589H30.129C32.0215 22.6589 33.5339 23.1456 34.6659 24.1181C35.7976 25.0911 36.3639 26.6299 36.3639 28.7347V35.978Z" fill="#004267"/>
<path d="M30.129 25.6836H27.3696V39.0293H30.129C31.9863 39.0293 32.9149 38.0124 32.9149 35.9781V28.7348C32.9149 26.7009 31.9863 25.6836 30.129 25.6836Z" fill="#004267"/>
<path d="M38.91 0.0686035H16.7867C15.8977 0.0686035 15.177 0.789297 15.177 1.67832C15.177 2.56734 15.8977 3.28804 16.7867 3.28804H38.91C46.0068 3.28804 51.7805 9.06164 51.7805 16.1584V38.2818C51.7805 39.1708 52.5012 39.8915 53.3902 39.8915C54.2792 39.8915 54.9999 39.1708 54.9999 38.2818V16.1584C54.9999 7.2865 47.782 0.0686035 38.91 0.0686035Z" fill="#004267"/>
</svg>
