<svg width="55" height="55" viewBox="0 0 55 55" fill="none" xmlns="http://www.w3.org/2000/svg">
<g clip-path="url(#clip0_56_45)">
<path d="M0 35.5566V47.6196C0 48.1978 0.309805 48.7317 0.812002 49.0185L11.3867 55V42.002L0 35.5566Z" fill="#004267"/>
<path d="M14.6094 42.002V55L25.8887 48.5547V35.5566L14.6094 42.002Z" fill="#004267"/>
<path d="M29.1113 35.5566V48.5547L40.3906 55V42.002L29.1113 35.5566Z" fill="#004267"/>
<path d="M43.6133 42.002V55L54.188 49.0185C54.6902 48.7317 55 48.1979 55 47.6197V35.5566L43.6133 42.002Z" fill="#004267"/>
<path d="M42.002 25.8887L29.5675 32.1058L42.002 39.2118L54.544 32.1058L42.002 25.8887Z" fill="#004267"/>
<path d="M28.2208 0.170076C27.767 -0.0566919 27.2331 -0.0566919 26.7794 0.170076L15.0656 6.21718L27.5001 13.3231L39.9346 6.21707L28.2208 0.170076Z" fill="#004267"/>
<path d="M14.6094 9.66797V23.0909L25.8887 28.7305V16.1133L14.6094 9.66797Z" fill="#004267"/>
<path d="M12.9981 25.8887L0.456177 32.1058L12.9981 39.2118L25.4326 32.1058L12.9981 25.8887Z" fill="#004267"/>
<path d="M29.1113 16.1133V28.7305L40.3906 23.0909V9.66797L29.1113 16.1133Z" fill="#004267"/>
</g>
<defs>
<clipPath id="clip0_56_45">
<rect width="55" height="55" fill="white"/>
</clipPath>
</defs>
</svg>
