<svg width="24" height="24" viewBox="0 0 24 24" fill="none" xmlns="http://www.w3.org/2000/svg">
<path d="M17.3766 0H6.62295C2.97106 0 0 2.9712 0 6.62309V17.3768C0 21.0288 2.97106 23.9999 6.62295 23.9999H17.3766C21.0288 23.9999 23.9999 21.0287 23.9999 17.3768V6.62309C24 2.9712 21.0288 0 17.3766 0ZM21.8706 17.3768C21.8706 19.8547 19.8547 21.8705 17.3768 21.8705H6.62295C4.1452 21.8706 2.12938 19.8547 2.12938 17.3768V6.62309C2.12938 4.14534 4.1452 2.12938 6.62295 2.12938H17.3766C19.8545 2.12938 21.8705 4.14534 21.8705 6.62309V17.3768H21.8706Z" fill="white"/>
<path d="M11.9998 5.81592C8.58984 5.81592 5.81567 8.59008 5.81567 12.0001C5.81567 15.4099 8.58984 18.1839 11.9998 18.1839C15.4098 18.1839 18.184 15.4099 18.184 12.0001C18.184 8.59008 15.4098 5.81592 11.9998 5.81592ZM11.9998 16.0544C9.76412 16.0544 7.94506 14.2356 7.94506 11.9999C7.94506 9.76408 9.76398 7.94516 11.9998 7.94516C14.2357 7.94516 16.0546 9.76408 16.0546 11.9999C16.0546 14.2356 14.2355 16.0544 11.9998 16.0544Z" fill="white"/>
<path d="M18.4434 4.01074C18.0331 4.01074 17.6301 4.17683 17.3404 4.46785C17.0492 4.75745 16.8818 5.16061 16.8818 5.57229C16.8818 5.98269 17.0493 6.38571 17.3404 6.67673C17.63 6.96633 18.0331 7.13384 18.4434 7.13384C18.8551 7.13384 19.2568 6.96633 19.5478 6.67673C19.8388 6.38571 20.0049 5.98255 20.0049 5.57229C20.0049 5.16061 19.8388 4.75745 19.5478 4.46785C19.2582 4.17683 18.8551 4.01074 18.4434 4.01074Z" fill="white"/>
</svg>
