<svg width="50" height="50" viewBox="0 0 50 50" fill="none" xmlns="http://www.w3.org/2000/svg">
<g clip-path="url(#clip0_58_93)">
<path d="M49.2168 23.5222C49.1664 23.4884 49.1144 23.4572 49.0607 23.4287L45.5126 21.5181L25.8358 31.9359C25.313 32.2128 24.6871 32.2128 24.1644 31.9359L4.48768 21.5181L0.93941 23.4287C0.0770362 23.8865 -0.251089 24.9567 0.206675 25.819C0.235134 25.8726 0.266315 25.9247 0.300111 25.9752L25.0001 39.0519L49.7 25.9752C50.244 25.1644 50.0277 24.0662 49.2168 23.5222Z" fill="#004267"/>
<path d="M49.7835 34.8661C49.6181 34.5596 49.3666 34.3082 49.0603 34.1429L45.5121 32.2322L25.8353 42.65C25.3126 42.9269 24.6867 42.9269 24.1639 42.65L4.48711 32.2322L0.938843 34.1429C0.0709236 34.6113 -0.252807 35.6945 0.215629 36.5625C0.381052 36.8689 0.632481 37.1204 0.938843 37.2857L24.1531 49.7857C24.6815 50.0702 25.3176 50.0702 25.846 49.7857L49.0603 37.2857C49.9281 36.8172 50.2519 35.734 49.7835 34.8661Z" fill="#004267"/>
<path d="M49.2168 12.8081C49.1664 12.7743 49.1144 12.7431 49.0607 12.7146L25.8465 0.214591C25.3182 -0.0699026 24.6821 -0.0699026 24.1537 0.214591L0.93941 12.7146C0.0770362 13.1724 -0.251089 14.2426 0.206675 15.1049C0.235134 15.1585 0.266315 15.2106 0.300111 15.261L25.0001 28.3378L49.7 15.261C50.244 14.4502 50.0277 13.352 49.2168 12.8081Z" fill="#004267"/>
</g>
<defs>
<clipPath id="clip0_58_93">
<rect width="50" height="50" fill="white"/>
</clipPath>
</defs>
</svg>
