<svg width="478" height="276" viewBox="0 0 478 276" fill="none" xmlns="http://www.w3.org/2000/svg">
<path d="M0.714844 18.5311C0.829106 9.16093 10.013 0.805653 20.2014 0.735661C165.262 0.722538 310.319 0.915015 455.38 0.661295C461.065 0.556307 466.959 2.17487 471.072 5.91068C475.005 9.40152 477.285 14.4147 477.285 19.4366C477.285 98.4661 477.19 177.5 477.285 256.53C477.38 263.279 472.8 269.622 466.454 272.824C464.483 273.953 462.136 274.294 460.127 275.344H18.5065C17.5686 274.937 16.5973 274.601 15.5928 274.36C7.80865 272.3 1.49564 265.764 0.719605 258.288C0.705322 178.375 0.738648 98.4486 0.714844 18.5311ZM50.9666 82.8448C51.1427 90.907 50.6714 98.9735 51.1951 107.027C58.4508 106.931 65.7065 106.931 72.9574 106.922C73.8572 105.548 75.0046 104.324 75.8806 102.946C76.3852 101.611 76.4995 100.181 77.0946 98.8773C77.1327 100.238 77.2279 101.607 77.1375 102.972C76.3567 104.547 74.8284 105.723 74.0619 107.316C74.2047 110.601 75.2141 113.79 76.609 116.8C81.0081 121.165 88.7923 121.905 94.3292 118.987C100.247 115.684 101.761 107.233 96.8906 102.569C96.9239 101.471 96.9097 100.369 96.7954 99.2754C98.276 97.7574 99.0473 95.8064 100.095 94.0348C101.399 94.1441 102.708 94.2229 104.023 94.2841C110.297 94.4591 116.577 94.2841 122.852 94.1791C122.809 89.6953 123.376 85.1283 122.295 80.7101C121.052 77.228 117.591 74.2314 113.444 74.2358C96.0194 74.0958 78.5896 74.2358 61.1645 74.1964C56.0132 74.0215 51.0713 78.0504 50.9666 82.8448ZM100.252 94.9184C99.2854 97.1275 97.5952 99.2141 97.7 101.694C98.5474 103.602 100.076 105.163 101.294 106.874C108.46 106.786 115.625 106.716 122.795 106.673C122.809 102.814 122.814 98.9517 122.747 95.0934C115.249 95.0715 107.75 94.9446 100.252 94.9184ZM50.9666 107.832C50.9475 111.747 50.9428 115.662 50.9333 119.582C60.0981 119.822 69.4438 118.593 78.4324 120.767C74.4951 117.609 72.5194 112.727 72.8574 107.972C65.5589 108.042 58.2603 107.814 50.9666 107.832ZM100.214 115.234C99.2806 117.504 97.1858 119.079 95.4766 120.842C99.133 120.448 102.685 119.346 106.389 119.328C111.873 119.289 117.363 119.402 122.842 119.179C122.8 115.601 122.781 112.027 122.828 108.449C115.744 108.44 108.655 108.532 101.58 108.09C101.256 110.483 101.133 112.946 100.214 115.234ZM50.7857 121.152C52.0759 124.157 54.2469 127.303 57.8699 128.16C61.5549 128.895 65.397 128.672 69.12 128.3C74.4047 129.175 79.7941 128.484 85.1263 128.536C85.1216 126.415 85.193 124.293 85.2168 122.176C81.27 122.031 77.3136 122.106 73.3811 121.773L73.9096 121.441C66.2111 120.995 58.4936 121.126 50.7857 121.152ZM89.0398 122.189C89.0446 124.258 89.1017 126.332 89.3398 128.396C97.4 128.759 105.479 128.576 113.544 128.514C118.02 128.414 121.509 124.962 122.781 121.235C115.911 121.441 109.002 120.811 102.161 121.585C97.8571 122.495 93.4199 122.29 89.0398 122.189ZM186.425 150.824C186.668 152.29 187.058 153.755 187.929 155.024C190.505 152.08 194.914 153.62 198.399 153.344C198.584 154.915 198.789 156.485 198.994 158.06C196.947 159.639 194.866 161.192 192.943 162.894C192.647 164.473 192.862 166.126 192.724 167.732C192.686 169.328 192.881 171.533 194.766 172.202C195.076 169.622 195.175 167.027 195.156 164.438C197.837 162.465 201.812 160.326 201.027 156.607C201.108 154.691 201.165 152.775 201.074 150.859C196.19 150.947 191.31 150.912 186.425 150.824ZM246.851 150.942C246.865 154.013 246.765 157.084 247.055 160.146C250.845 160.343 254.644 160.282 258.434 160.116C258.496 162.176 258.525 164.245 258.725 166.301C257.691 168.003 257.577 170.007 257.039 171.866C258.353 172.028 259.677 172.102 261 172.098C261.719 165.068 261.353 157.999 261.291 150.951C256.482 150.61 251.659 150.759 246.851 150.942ZM349.792 150.947C349.763 153.742 349.611 156.546 349.844 159.337C349.849 160.413 349.844 161.485 349.806 162.561C352.634 162.692 355.491 162.513 358.29 162.99C358.133 165.146 358.919 167.548 357.771 169.534C353.81 170.475 349.873 169.062 346.031 168.353C346.726 169.849 348.083 171.052 349.792 171.533C353.163 172.535 356.752 171.883 360.223 171.993C360.847 168.825 361.075 165.575 360.799 162.369C360.78 161.804 360.766 161.244 360.761 160.689C357.928 160.365 355.081 160.203 352.234 160.085C352.248 157.819 352.267 155.558 352.306 153.296C354.938 153.248 357.576 153.335 360.213 153.287C360.709 153.344 361.037 153.156 361.199 152.732L360.851 152.819C360.751 152.43 360.561 151.656 360.466 151.266C356.909 151.078 353.339 151.209 349.792 150.947ZM368.488 150.562C368.164 153.93 368.145 157.334 368.517 160.702C368.44 161.997 368.426 163.292 368.417 164.591C371.092 164.521 373.777 164.407 376.453 164.626C378.657 166.8 376.153 170.3 378.572 172.342C378.734 170.072 378.643 167.797 378.572 165.527C378.905 165.195 379.233 164.858 379.557 164.521C380.705 163.493 378.719 162.356 378.543 161.236C379.191 159.075 379.391 156.782 379.253 154.547C379.219 153.484 377.743 153.414 376.986 153.016C376.996 156.078 377.343 159.127 377.386 162.189L377.072 162.154C375.277 163.65 372.72 163.217 370.507 163.357C370.649 159.324 370.764 155.286 370.807 151.253C370.588 151.323 370.154 151.459 369.935 151.529C369.45 151.196 368.974 150.877 368.488 150.562ZM108.441 164.853C111.34 164.88 114.244 164.915 117.148 164.88C117.472 166.831 116.744 168.839 117.363 170.759C117.586 171.621 118.515 172.001 119.31 172.342C119.438 170.072 119.448 167.797 119.367 165.523C119.972 164.932 120.586 164.35 121.2 163.768C120.481 163.226 119.757 162.688 119.029 162.163C118.891 159.044 119.424 155.733 118.186 152.767C116.891 155.969 117.648 159.425 117.11 162.732C114.92 162.71 112.73 162.784 110.54 162.675C110.569 159.005 110.583 155.33 110.64 151.656C109.945 151.371 109.25 151.078 108.56 150.794C108.517 155.483 108.622 160.168 108.441 164.853ZM150.223 151.297C150.156 155.046 150.261 158.795 150.056 162.544C152.936 162.557 155.822 162.513 158.702 162.535C158.735 164.866 158.75 167.198 158.764 169.53C154.588 169.998 150.294 169.661 146.371 168.217C147.119 169.906 148.656 171.301 150.651 171.656C153.889 172.251 157.216 171.796 160.482 171.621C161.182 168.012 161.239 164.267 160.383 160.676C157.645 160.623 154.912 160.483 152.175 160.558C151.784 158.125 151.618 155.663 151.622 153.204C154.627 153.138 157.635 153.082 160.635 153.265C160.635 152.614 160.635 151.966 160.64 151.319C157.169 151.332 153.693 151.341 150.223 151.297ZM167.067 151.192C167.357 158.016 166.357 164.858 167.272 171.66C171.775 172.001 176.289 171.686 180.797 171.739C181.007 168.852 180.959 165.951 181.078 163.06C177.112 162.535 173.104 162.719 169.114 162.692C169.109 159.726 169.033 156.769 169.028 153.808C169.638 153.064 170.242 152.325 170.842 151.581C169.585 151.428 168.329 151.301 167.067 151.192ZM209.868 151.292C209.906 154.171 209.887 157.054 209.725 159.928C208.849 160.278 207.978 160.623 207.102 160.964C206.497 164.022 206.816 167.137 206.911 170.221C207.444 170.658 207.978 171.1 208.506 171.546C212.324 171.59 216.138 171.542 219.956 171.634C221.075 168.134 221.065 164.455 220.794 160.846C219.818 160.754 218.847 160.667 217.876 160.584C217.785 157.544 217.704 154.503 217.847 151.467C215.19 151.306 212.529 151.327 209.868 151.292ZM269.908 151.109C269.937 153.983 269.96 156.861 269.875 159.74C268.941 160.146 268.018 160.575 267.104 161.017C266.813 163.414 266.87 165.824 266.79 168.235C267.028 169.552 267.028 171.717 268.927 171.896C272.75 172.014 276.678 172.491 280.434 171.599C281.277 168.182 281.653 164.608 280.749 161.166L280.758 160.903C279.925 160.733 279.097 160.566 278.263 160.4C277.397 157.434 277.697 154.355 277.664 151.323C275.074 151.345 272.488 151.275 269.908 151.109ZM286.795 150.973C286.928 152.141 287.076 153.305 287.228 154.468C290.709 152.618 294.827 153.143 298.659 153.217C298.574 154.853 298.802 156.555 298.34 158.147C296.855 160.011 294.684 161.262 292.87 162.828C292.932 164.167 292.979 165.501 293.056 166.839C292.699 168.572 292.713 170.374 292.946 172.124C293.717 171.971 294.493 171.822 295.265 171.66C295.208 169.145 295.412 166.638 295.36 164.123C297.074 162.474 299.788 161.629 300.745 159.372C301.216 156.686 300.745 153.952 300.502 151.262C295.931 151.314 291.346 151.45 286.795 150.973ZM306.843 150.833C306.881 155.759 306.691 160.684 307.01 165.601C306.786 167.167 306.434 168.764 306.72 170.348C306.905 171.039 307.362 171.971 308.295 171.927C312.423 172.181 316.565 171.971 320.702 172.036C320.969 169.372 320.893 166.686 320.736 164.018L319.631 164.175C320.274 164.013 320.888 163.773 321.517 163.554C317.484 162.399 313.228 162.749 309.071 162.688C309.11 159.985 309.114 157.277 309.11 154.573C309.033 153.353 310.219 152.539 310.852 151.577C309.519 151.301 308.181 151.056 306.843 150.833ZM386.442 150.964C386.76 151.59 387.094 152.22 387.418 152.854C391.098 153.628 394.878 153.143 398.606 153.125C398.596 153.939 398.472 154.766 398.61 155.575C398.149 157.25 397.982 158.978 397.535 160.658C394.911 160.61 392.288 160.483 389.669 160.383C389.884 161.074 390.103 161.765 390.331 162.461C392.507 162.491 394.806 162.71 396.887 161.966C398.744 164.07 398.739 166.909 398.182 169.438C394.407 170.02 390.579 169.643 386.784 169.464C386.908 170.326 387.056 171.188 387.241 172.041C391.545 172.019 395.849 172.036 400.153 172.045C401.067 168.344 401.267 164.403 400.058 160.733L400.443 160.584C400.539 159.744 400.624 158.904 400.705 158.064C400.653 155.873 400.658 153.685 400.629 151.494C395.93 150.868 391.169 150.991 386.442 150.964ZM406.371 150.96C406.676 151.607 406.995 152.264 407.304 152.915C410.989 153.55 414.736 153.173 418.459 153.169C418.583 155.216 418.687 157.268 418.754 159.315C415.245 161.59 410.822 159.836 406.914 160.199C406.861 164.14 406.79 168.086 406.895 172.028C411.594 172.019 416.293 172.054 420.992 172.01C420.677 171.227 420.363 170.444 420.044 169.661C416.374 169.7 412.698 169.687 409.027 169.661C408.813 167.443 408.97 165.212 408.87 162.99C412.612 162.824 416.364 162.981 420.111 162.902C420.378 161.297 420.544 159.678 420.658 158.055C420.658 155.838 420.573 153.615 420.368 151.406C415.717 150.934 411.041 150.986 406.371 150.96ZM46.4104 151.454C47.7815 153.611 50.7952 153.152 53.0852 153.327C53.0233 158.777 53.128 164.228 52.8567 169.674C50.719 169.683 48.5766 169.692 46.4389 169.713C46.8674 170.4 47.3149 171.074 47.7815 171.739C52.133 172.036 56.5035 171.844 60.8646 171.888C61.0074 169.083 60.9312 166.279 60.9693 163.475C60.3123 163.147 59.6553 162.824 58.9983 162.5C58.8555 164.897 58.8364 167.299 58.5698 169.692C57.4081 169.705 56.2417 169.722 55.08 169.74C55.0039 163.602 54.9896 157.465 55.0277 151.327C52.1521 151.336 49.2764 151.253 46.4104 151.454ZM66.392 151.45C66.93 151.97 67.368 152.622 68.0536 153.003C71.6767 153.278 75.3283 153.025 78.9609 153.222C78.9276 155.606 78.8038 157.985 78.7133 160.37C74.8855 160.842 71.0197 160.593 67.1728 160.601C66.9586 164.368 66.7681 168.143 66.9062 171.914C71.5719 171.839 76.2424 171.979 80.9081 171.796C80.9224 171.122 80.9319 170.448 80.9367 169.779C76.9994 169.604 73.0526 169.779 69.1153 169.665C69.101 167.268 69.0296 164.875 69.001 162.478C72.6431 162.5 76.2853 162.461 79.9274 162.539C81.0938 158.943 81.1414 155.076 80.1702 151.441C75.5806 151.38 70.9816 151.201 66.392 151.45ZM86.1404 151.695C89.8158 154.328 94.6577 152.74 98.8902 153.134C98.6188 155.619 99.5472 158.488 97.5429 160.531C94.7482 160.562 91.9535 160.575 89.1636 160.711C91.2775 163.668 95.5195 162.198 98.6807 162.565C98.7093 164.936 98.7141 167.307 98.5807 169.674C94.5006 169.692 90.4205 169.674 86.3404 169.7C86.7165 170.326 87.0402 170.995 87.5734 171.524C88.2067 171.901 89.0398 171.796 89.7682 171.883C93.2913 171.962 96.8192 171.914 100.342 171.778C101.271 168.423 100.952 164.954 100.423 161.572C100.571 158.252 100.976 154.923 100.733 151.59C95.8718 151.336 90.9775 151.065 86.1404 151.695ZM55.0229 182.885C56.4369 182.701 57.8319 182.303 59.2697 182.325C60.3409 182.343 61.1693 183.384 60.9027 184.333C60.279 187.198 57.5367 188.996 55.5085 191.03C55.4799 191.542 55.4514 192.054 55.4228 192.57C58.1699 192.614 60.9217 192.596 63.664 192.426C62.1834 190.693 59.4696 191.481 57.4034 191.214C58.9364 189.49 60.9408 188.091 62.0453 186.074C62.6737 184.915 62.9641 183.392 62.0358 182.299C60.3313 180.203 56.3131 180.527 55.0229 182.885ZM64.3353 182.627C66.3301 182.798 69.2295 181.385 70.5102 183.392C70.4531 185.238 68.2059 185.833 66.9538 186.91C68.0346 186.997 69.1153 187.08 70.2008 187.154C70.3436 188.476 71.0958 190.348 69.5866 191.223C67.8155 191.875 65.9445 190.973 64.1401 190.877C65.7303 193.931 71.4243 193.436 72.2956 190.129C72.8479 188.633 71.5148 187.395 70.7388 186.218C71.4719 185.042 72.905 183.458 71.6481 182.159C69.739 180.085 66.1349 180.772 64.3353 182.627ZM73.3002 188.528C75.295 188.637 77.2898 188.69 79.2847 188.742C79.2942 190.011 79.3037 191.288 79.3085 192.561C79.6512 192.566 80.3321 192.574 80.6748 192.579C80.7939 190.921 80.5844 188.843 82.465 187.92C81.9365 187.653 81.408 187.391 80.8843 187.124C80.8177 184.993 80.8367 182.859 80.7177 180.733C77.5088 182.636 74.9903 185.396 73.3002 188.528ZM46.7579 183.231C47.4911 183.559 48.2386 183.865 48.9955 184.158C49.1289 186.196 49.6764 188.301 49.0717 190.313C48.7813 191.301 47.7291 191.748 46.8246 192.172C48.9765 192.811 51.276 192.754 53.4851 192.408C52.8233 191.691 51.9664 191.188 50.9856 190.925C50.8761 187.644 50.938 184.364 50.9428 181.083C49.5573 181.813 48.1671 182.531 46.7579 183.231ZM218.742 188.896C218.333 188.41 217.928 187.924 217.528 187.439C216.438 187.749 215.905 188.672 215.238 189.438C214.462 189.63 214.167 188.777 213.691 188.397C213.948 187.631 212.52 187.181 212.239 187.951C211.439 189.989 211.22 192.509 212.867 194.259C213.034 192.964 213.134 191.66 213.291 190.361C213.848 190.917 214.314 191.538 214.743 192.19C215.29 191.551 215.89 190.956 216.557 190.427C216.695 191.665 216.804 192.903 216.947 194.141C217.476 193.48 217.995 192.806 218.514 192.133C219.866 192.903 221.184 194.574 222.965 193.878C226.093 192.771 225.96 187.732 222.594 187.032C220.932 186.533 219.851 188.064 218.742 188.896ZM226.326 186.896C226.46 188.992 226.683 191.083 226.66 193.187C227.036 191.962 227.269 190.711 227.478 189.455C228.521 191 229.35 192.693 230.759 194.001C231.002 191.826 230.916 189.639 230.959 187.461C230.73 187.544 230.273 187.719 230.045 187.806C229.992 188.721 229.945 189.635 229.883 190.549C228.445 189.56 227.578 188.06 226.326 186.896ZM231.53 187.439C232.382 187.723 233.43 188.008 233.706 188.922C234.196 190.427 233.887 192.028 233.91 193.576C234.153 193.576 234.648 193.572 234.891 193.572C234.958 191.844 234.396 189.902 235.444 188.344C236.005 187.496 237.172 187.828 238.062 187.749C237.591 189.849 237.657 192.115 238.538 194.119C238.71 192.977 238.819 191.826 238.938 190.68C239.933 190.641 240.928 190.602 241.933 190.567C241.952 191.389 241.852 192.233 242.056 193.047C242.699 193.869 243.518 194.565 244.285 195.295C245.275 192.798 245.618 190.059 247.232 187.793C249.207 189.364 249.412 191.857 249.979 194.036C250.531 192.5 250.46 190.79 251.288 189.337C251.626 188.852 252.469 188.113 253.092 188.624C253.792 190.19 253.445 191.94 253.516 193.594C254.982 193.528 256.454 193.493 257.92 193.629C257.872 193.476 257.782 193.169 257.734 193.021C256.22 192.981 254.159 192.749 254.016 191.008C255.32 190.68 256.639 190.422 257.968 190.16C256.563 189.823 254.882 189.884 253.987 188.651C255.349 188.226 256.749 187.911 258.139 187.579C256.12 187.207 254.044 186.857 251.993 187.224C251.35 187.977 250.707 188.721 250.079 189.482C249.012 188.34 247.812 187.277 246.246 186.756C245.384 188.996 244.98 191.363 244.104 193.594C243.813 193.62 243.232 193.668 242.937 193.694C242.894 191.441 243.147 189.114 242.323 186.953C242.109 187.898 241.933 188.852 241.757 189.805C240.885 189.792 240.019 189.784 239.152 189.779C238.976 189.053 238.8 188.336 238.624 187.614C236.358 186.905 233.858 187.124 231.53 187.439ZM260.938 186.835C260.467 187.824 260 188.817 259.353 189.722C260.329 189.565 261.305 189.7 262.267 189.884C261.848 188.865 261.714 187.701 260.938 186.835ZM264.314 193.371C264.619 193.375 265.233 193.379 265.537 193.384C265.518 192.535 265.504 191.691 265.495 190.847C266.832 191.826 268.118 192.868 269.518 193.782C269.041 192.942 268.523 192.124 267.999 191.31C268.356 190.029 268.575 188.721 268.551 187.399C267.256 187.303 265.966 187.207 264.676 187.098C264.395 189.18 264.504 191.284 264.314 193.371ZM258.163 192.631C258.344 192.863 258.534 193.099 258.725 193.331C259.439 192.671 260.234 192.08 261.062 191.542C262.014 192.281 262.805 193.463 264.214 193.401C263.681 192.286 263.09 191.201 262.505 190.112C261.743 190.545 260.981 190.978 260.215 191.402C260.229 190.991 260.248 190.164 260.258 189.753C259.196 190.466 258.82 191.643 258.163 192.631ZM158.045 197.421C158.259 199.512 158.892 201.551 159.911 203.432C160.178 203.795 160.249 204.473 160.873 204.438C161.873 202.19 162.777 199.897 163.42 197.54C162.106 199.001 161.349 200.772 160.392 202.43C159.716 200.72 159.064 198.992 158.045 197.421ZM178.036 197.719C177.979 199.98 178.012 202.242 178.027 204.508C179.517 204.447 181.116 204.272 182.326 203.393C183.525 202.518 183.597 200.855 183.092 199.639C182.064 198.034 179.831 197.929 178.036 197.719ZM204.897 197.474C204.931 197.986 204.973 198.502 205.016 199.018C206.583 199.022 208.144 199.066 209.711 199.136C209.634 203.541 209.615 207.951 209.344 212.347C207.621 212.343 205.892 212.356 204.178 212.478C207.492 214.989 211.91 213.283 215.748 213.541C215.743 211.315 215.805 209.084 215.824 206.857C215.267 206.875 214.714 206.897 214.162 206.923C214.124 208.533 214.581 210.278 213.767 211.783C213.253 212.64 212.115 212.754 211.172 212.863C211.167 207.736 210.872 202.618 210.939 197.491C208.925 197.426 206.906 197.478 204.897 197.474ZM242.285 203.353C240.228 206.848 237.181 210.007 236.534 214.062C241 209.036 244.765 203.41 247.208 197.303C244.765 198.664 243.689 201.201 242.285 203.353ZM165.577 197.951C164.605 200.064 163.839 202.251 163.115 204.447C163.977 203.747 164.82 203.03 165.643 202.295C166.881 202.798 168.095 203.353 169.309 203.904C168.405 202.736 167.957 201.376 167.8 199.963C167.219 200.575 166.662 201.205 166.119 201.848C165.739 201.227 165.353 200.61 164.972 199.998C165.715 199.661 166.486 199.364 167.195 198.961C167.462 198.222 166.048 198.301 165.577 197.951ZM169.385 203.992C171.68 204.224 173.985 204.329 176.294 204.368C175.984 202.22 175.97 200.046 176.265 197.898C175.798 197.898 174.87 197.903 174.408 197.903C174.761 199.801 175.061 201.708 175.237 203.633C173.646 203.589 172.061 203.493 170.48 203.349C170.476 201.415 170.647 199.429 169.919 197.575C169.3 199.666 169.538 201.853 169.385 203.992ZM220.009 197.986C222.903 200.055 226.674 198.821 230.002 199.001C229.959 201.026 229.978 203.056 229.835 205.081C226.836 204.967 223.827 204.744 220.842 205.107C220.375 207.942 220.651 210.812 220.685 213.664C224.374 213.668 228.064 213.603 231.749 213.393C228.831 211.783 225.303 212.798 222.108 212.553C222.137 210.558 222.184 208.563 222.265 206.568C225.227 206.582 228.183 206.468 231.144 206.477C231.63 203.708 231.711 200.882 231.554 198.082C227.712 197.846 223.851 197.71 220.009 197.986ZM252.34 204.67C255.335 204.731 258.329 204.718 261.324 204.722C261.291 207.614 260.929 210.492 260.453 213.345C261.291 213.843 262.219 214.18 263.205 214.364C263.938 208.961 263.904 203.502 263.785 198.069C263.538 197.999 263.043 197.854 262.795 197.785C259.31 197.859 255.83 197.811 252.35 197.763C252.307 200.064 252.326 202.369 252.34 204.67ZM268.204 197.749C268.146 200.05 268.185 202.356 268.199 204.657C271.227 204.727 274.259 204.67 277.273 204.985L277.349 205.234C276.888 208.021 276.688 210.842 276.354 213.646C277.207 213.887 278.059 214.11 278.925 214.324C279.625 208.891 279.682 203.397 279.52 197.938C279.282 197.885 278.811 197.78 278.573 197.728C275.116 197.837 271.66 197.749 268.204 197.749ZM185.406 202.666C185.392 204.779 185.387 206.888 185.396 209.001C188.086 208.06 190.795 207.128 193.385 205.974C193.404 205.877 193.447 205.685 193.471 205.589C190.814 204.543 188.11 203.607 185.406 202.666ZM166.643 208.345C167.838 209.25 168.395 210.558 168.438 211.967C168.747 211.984 169.371 212.019 169.685 212.037C169.681 209.784 169.628 207.531 169.533 205.278C168.543 206.28 167.91 207.592 166.643 208.345ZM157.802 206.114C158.559 206.302 159.316 206.477 160.083 206.669C160.178 208.616 160.221 210.567 160.487 212.509C161.387 210.265 160.325 207.334 162.706 205.707C161.073 205.873 159.435 205.991 157.802 206.114ZM164.077 212.054C164.41 212.037 165.077 212.006 165.41 211.988C165.553 211.162 165.7 210.339 165.858 209.521L166.367 209.613C166.71 207.995 165.658 206.625 164.896 205.265C163.772 207.382 164.082 209.779 164.077 212.054ZM170.819 205.694C170.857 207.96 170.857 210.239 171.171 212.496C171.742 211.66 172.247 210.794 172.718 209.911C173.899 210.812 175.084 211.704 176.346 212.509C175.832 211.446 175.284 210.396 174.746 209.351C175.146 208.751 175.546 208.156 175.941 207.561C175.584 206.945 175.227 206.332 174.88 205.715C173.527 205.667 172.171 205.667 170.819 205.694ZM181.354 205.952C181.335 207.745 181.231 209.534 180.95 211.315C180.117 211.407 178.998 211.656 178.584 210.755C178.012 209.259 178.455 207.623 178.274 206.074C177.988 206.022 177.427 205.917 177.141 205.864C177.227 207.745 177.246 209.644 177.65 211.503C178.869 211.967 180.236 212.107 181.521 211.752C182.759 210.042 182.254 207.876 182.378 205.947C182.126 205.947 181.612 205.952 181.354 205.952ZM63.545 250.112C64.202 248.594 64.8876 247.094 65.5113 245.567C67.5013 245.541 69.4866 245.65 71.4767 245.733C72.0052 247.002 72.4146 248.327 73.1811 249.5C74.0333 250.029 75.1855 249.933 76.1615 250.169C74.9903 246.578 73.7239 243.004 72.2813 239.495C71.4767 237.531 70.7292 235.554 69.977 233.572C68.9677 233.533 67.9631 233.489 66.9586 233.445C66.492 234.71 65.935 235.952 65.6588 237.269L63.545 250.112ZM111.397 233.48C111.688 239.027 110.654 244.732 112.43 250.138C112.626 248.432 112.511 246.704 112.854 245.016C113.073 246.643 113.102 248.288 113.33 249.92C113.487 249.819 113.811 249.622 113.968 249.522C114.097 246.993 113.916 244.456 114.078 241.923C116.553 241.98 119.034 241.962 121.514 241.941C121.671 244.412 121.514 246.888 121.643 249.364C122.576 249.281 123.514 249.211 124.452 249.15C124.147 243.927 124.366 238.695 124.247 233.467C123.304 233.489 122.366 233.511 121.433 233.542C121.452 235.619 121.443 237.693 121.443 239.771C118.986 239.775 116.525 239.71 114.068 239.731C114.006 237.658 114.087 235.589 113.982 233.52L111.397 233.48ZM129.346 235.628C126.946 238.577 127.365 242.527 128.051 245.935L127.922 246.053C129.641 248.546 132.588 250.694 135.978 250.353C138.611 250.353 140.558 248.537 142.339 246.993L142.191 246.844C143.129 243.432 143.805 239.522 141.724 236.341C139.244 232.417 132.336 232.015 129.346 235.628ZM146.333 233.196C146.352 233.45 146.385 233.966 146.4 234.22C145.89 239.382 146.09 244.578 146.076 249.753C149.694 249.898 153.322 249.933 156.95 249.942C156.959 249.084 156.974 248.231 156.993 247.378C154.389 247.356 151.784 247.4 149.185 247.378C149.08 242.881 149.28 238.38 149.056 233.883C148.152 233.638 147.242 233.406 146.333 233.196ZM159.245 233.467C159.207 238.865 159.264 244.259 159.254 249.657C162.692 249.701 166.462 250.235 169.571 248.542C174.603 245.55 174.57 237.745 169.557 234.753C166.457 233.039 162.687 233.55 159.245 233.467ZM176.432 233.515C176.717 238.927 176.541 244.342 176.622 249.758C180.283 249.749 183.949 249.753 187.615 249.762C187.596 249.023 187.577 248.284 187.567 247.549C184.778 247.382 181.983 247.483 179.193 247.444C179.255 245.606 179.269 243.769 179.307 241.936C181.921 241.954 184.54 241.997 187.158 241.976C187.125 241.245 187.096 240.519 187.068 239.793C184.468 239.788 181.878 239.696 179.283 239.71C179.245 238.389 179.25 237.076 179.274 235.759C182.116 235.759 184.958 235.729 187.801 235.781C187.729 235.016 187.653 234.25 187.577 233.489C183.863 233.48 180.145 233.498 176.432 233.515ZM190.876 233.463C190.91 238.861 190.814 244.263 190.943 249.666C191.838 249.71 192.738 249.762 193.638 249.81C193.709 247.466 193.723 245.116 193.914 242.781C197.375 243.892 198.575 247.439 201.436 249.255C202.441 249.95 203.721 250.003 204.935 249.998C203.055 247.597 200.984 245.335 198.88 243.104C200.584 241.744 202.317 239.959 202.169 237.732C202.155 235.742 200.327 234.141 198.303 233.73C195.866 233.244 193.347 233.537 190.876 233.463Z" fill="#2D5B99" stroke="#21437C" stroke-width="3"/>
</svg>
