<svg width="13" height="15" viewBox="0 0 13 15" fill="none" xmlns="http://www.w3.org/2000/svg">
<path d="M12.258 14.406L11.7262 4.13421C11.7114 3.84842 11.4754 3.62429 11.1892 3.62429H9.61981V3.11952C9.61981 1.3994 8.22029 0 6.50013 0C4.78002 0 3.38069 1.3994 3.38069 3.11952V3.62429H1.81126C1.52507 3.62429 1.28897 3.84842 1.27416 4.13421L0.740948 14.4344C0.733361 14.5816 0.786515 14.7256 0.888055 14.8325C0.989557 14.9394 1.13055 15 1.27801 15H11.7225C11.7228 15 11.723 15 11.7232 15C12.0202 15 12.2609 14.7592 12.2609 14.4623C12.2609 14.4432 12.26 14.4244 12.258 14.406ZM4.14678 5.8009C3.82869 5.8009 3.57074 5.54295 3.57074 5.22486C3.57074 4.90677 3.82869 4.64883 4.14678 4.64883C4.46487 4.64883 4.72281 4.90677 4.72281 5.22486C4.72281 5.54295 4.46487 5.8009 4.14678 5.8009ZM8.01995 3.62429H4.98048V3.11952C4.98048 2.28149 5.66218 1.59978 6.50013 1.59978C7.3382 1.59978 8.01995 2.28149 8.01995 3.11952V3.62429ZM8.85436 5.8009C8.53627 5.8009 8.27833 5.54295 8.27833 5.22486C8.27833 4.90677 8.53627 4.64883 8.85436 4.64883C9.17245 4.64883 9.4304 4.90677 9.4304 5.22486C9.4304 5.54295 9.17245 5.8009 8.85436 5.8009Z" fill="#004267"/>
</svg>
