<svg width="100" height="100" viewBox="0 0 100 100" fill="none" xmlns="http://www.w3.org/2000/svg">
<path d="M50 0C22.4289 0 0 22.4289 0 50C0 77.5711 22.4289 100 50 100C77.5711 100 100 77.5711 100 50C100 22.4289 77.5711 0 50 0ZM75.3418 39.4043L48.2582 66.4871C47.4457 67.2997 46.3791 67.7086 45.3125 67.7086C44.2459 67.7086 43.1793 67.2997 42.3668 66.4871L28.8254 52.9457C27.1957 51.3168 27.1957 48.6832 28.8254 47.0543C30.4543 45.4247 33.0872 45.4247 34.7168 47.0543L45.3125 57.65L69.4504 33.5129C71.0793 31.8832 73.7122 31.8832 75.3418 33.5129C76.9707 35.1418 76.9707 37.7747 75.3418 39.4043Z" fill="#007C32"/>
</svg>
