<svg width="30" height="37" viewBox="0 0 30 37" fill="none" xmlns="http://www.w3.org/2000/svg">
<path d="M29.4058 8.49147L15.6217 0.173329C15.2386 -0.0577764 14.7615 -0.0577764 14.3784 0.173329L0.594234 8.49147C0.225839 8.71383 0 9.11664 0 9.55146V14.2998C0 24.301 5.69655 33.4355 14.561 36.9168C14.8432 37.0277 15.1566 37.0278 15.439 36.9168C24.282 33.4442 30 24.3294 30 14.2998V9.55146C30.0001 9.11657 29.7743 8.71383 29.4058 8.49147ZM21.007 15.7286L13.3865 23.4586C12.9117 23.9402 12.1419 23.9402 11.667 23.4586L8.99258 20.7458C8.51775 20.2642 8.51775 19.4832 8.99258 19.0016C9.46741 18.52 10.2373 18.52 10.7121 19.0016L12.5267 20.8422L19.2875 13.9844C19.7622 13.5028 20.5322 13.5028 21.007 13.9844C21.4819 14.4661 21.4819 15.247 21.007 15.7286Z" fill="#004267"/>
</svg>
