<svg width="31" height="31" viewBox="0 0 31 31" fill="none" xmlns="http://www.w3.org/2000/svg">
<path d="M30.344 0.00401357C24.0974 -0.107986 16.9733 3.15735 12.464 8.22268C8.15468 8.30402 3.95868 10.0707 0.869346 13.16C0.689346 13.3373 0.625346 13.6027 0.704013 13.8427C0.784013 14.084 0.992013 14.2587 1.24268 14.2947L6.38135 15.0307L5.74668 15.7414C5.51068 16.0054 5.52268 16.4067 5.77335 16.6574L14.3427 25.2267C14.472 25.356 14.6427 25.4214 14.8147 25.4214C14.9733 25.4214 15.132 25.3654 15.2587 25.252L15.9693 24.6173L16.7053 29.756C16.7414 30.0067 16.9387 30.1907 17.1773 30.2707C17.2387 30.2907 17.3027 30.3 17.368 30.3C17.5574 30.3 17.7507 30.2174 17.884 30.0854C20.9307 27.0387 22.6973 22.8427 22.7787 18.5333C27.8494 14.0147 31.1414 6.89335 30.996 0.65468C30.9867 0.300014 30.7 0.0133469 30.344 0.00401357ZM24.2 11.5134C23.5507 12.1627 22.6974 12.488 21.8427 12.488C20.988 12.488 20.1347 12.1627 19.4853 11.5134C18.1867 10.2133 18.1867 8.09868 19.4853 6.79868C20.7854 5.49868 22.9 5.49868 24.2 6.79868C25.5 8.09868 25.5 10.2147 24.2 11.5134Z" fill="#004267"/>
</svg>
