<svg width="30" height="30" viewBox="0 0 30 30" fill="none" xmlns="http://www.w3.org/2000/svg">
<path d="M29.1242 2.55754C28.5241 1.92004 27.6728 1.55251 26.7952 1.55251H24.0011C24.0124 1.05 24.0199 0.532543 24.0199 0H5.9989C5.9989 0.532469 6.00637 1.05 6.01765 1.55251H3.20481C2.32719 1.55251 1.47587 1.92004 0.875792 2.55754C0.268174 3.19884 -0.0468054 4.07628 0.00564242 4.96508C0.508218 13.3426 4.83252 18.6 11.6883 19.3801L10.3606 24C8.78171 24 7.50282 25.2787 7.50282 26.8575V30H22.5197V26.8575C22.5197 25.2787 21.2408 24 19.6618 24L18.3342 19.3801C25.175 18.5926 29.4955 13.3388 29.9944 4.96508C30.0468 4.08009 29.7318 3.20258 29.1242 2.55754ZM3.00227 4.78505C2.99854 4.70258 3.03231 4.64633 3.06227 4.6163C3.11852 4.55631 3.18606 4.55631 3.20481 4.55631H6.1602C6.60652 10.4551 7.9079 13.8 9.17185 15.69C4.35998 13.6725 3.21228 8.28382 3.00227 4.78505ZM20.847 15.6788C22.1109 13.785 23.4086 10.4438 23.8548 4.55258H26.7989C26.8214 4.55258 26.8852 4.55258 26.9415 4.61256C26.9715 4.64259 27.0052 4.69884 27.0015 4.78131C26.7877 8.28008 25.6438 13.6538 20.847 15.6788Z" fill="#004267"/>
</svg>
